<svg preserveAspectRatio="xMidYMid meet" version="1.1" xmlns="http://www.w3.org/2000/svg" style="display: block;" viewBox="0 0 2048 2048" width="512" height="512">
<path transform="translate(0,0)" fill="rgb(0,0,0)" d="M 1507.16 350.202 C 1529.66 352.114 1553.08 374.019 1570.42 386.779 C 1705.72 486.363 1805.89 651.508 1818.41 820.94 C 1820.32 846.816 1819.47 873.002 1819.46 898.936 L 1819.42 1218.8 C 1819.42 1248.73 1820.82 1279.21 1819.6 1309.08 C 1818.04 1346.98 1755.98 1350.44 1723.6 1359.2 L 1594.23 1395.13 C 1439.98 1438.98 1285.66 1483.17 1130.63 1524.17 L 1130.69 1596.97 C 1130.73 1680.63 1126.19 1669.27 1045.08 1674.94 C 882.436 1686.31 718.046 1672.13 560.682 1628.68 C 434.243 1589.39 239.343 1509.95 229.503 1358.53 C 227.486 1327.5 229.009 1295.5 228.999 1264.38 L 228.996 944.768 C 229.011 896.254 224.954 856.512 246.591 811.451 C 311.268 676.762 532.9 603.902 675.284 576.059 C 801.505 551.377 1144.84 525.5 1268.47 584.621 C 1286.7 567.911 1303.66 548.796 1321.11 531.208 L 1439.51 412.091 C 1455.76 395.842 1486.34 356.906 1507.16 350.202 z M 957.489 609.493 C 777.141 609.464 475.266 653.552 339.196 790.261 C 270.773 859.004 273.948 931.692 343.014 998.976 C 426.563 1080.37 606.368 1140.54 726.315 1155.66 C 782.541 1166.74 864.226 1176.15 919.539 1174.85 C 883.988 1161.16 806.02 1139.94 776.802 1123.27 C 734.596 1099.19 786.347 1060.67 804.207 1043.23 L 1219.19 632.302 C 1132.92 611.229 1045.55 609.941 957.489 609.493 z M 906.771 1103.19 C 962.593 1125.08 1022.58 1141.43 1079.25 1161.8 C 1093.24 1166.85 1119.76 1171.87 1126.2 1186.02 C 1136.69 1209.07 1110.92 1298.87 1162.37 1275.06 C 1175.28 1269.09 1183.35 1252.68 1192.24 1242.07 C 1255.57 1166.52 1320.91 1236.09 1350.05 1221.71 C 1380.06 1206.9 1395.62 1136.95 1476.18 1162.42 C 1532.48 1180.21 1520.73 1180.84 1558.11 1138.59 C 1621.6 1066.82 1690.36 1135.83 1719.98 1118.6 C 1735.06 1109.84 1744.97 1090.64 1758.02 1078.82 L 1758.03 904.289 C 1758.04 898.637 1760.4 868.299 1758.93 865.185 L 1758.02 865.186 C 1722.34 871.798 1686.74 883.699 1651.78 893.429 L 1022.13 1070.5 C 983.736 1081.58 945.037 1091.68 906.771 1103.19 z M 1060.76 992.93 L 1629.68 833.858 C 1615.12 718.608 1533.95 569.813 1426.84 515.858 L 945.61 992.822 C 930.325 1008.25 913.344 1022.7 899.155 1039.13 C 918.351 1035.65 937.042 1029.21 955.776 1023.85 L 1060.76 992.93 z M 1068.51 1389.8 L 1068.56 1286.11 C 1068.57 1269.2 1069.52 1251.77 1068.51 1234.91 C 844.994 1261.39 498.581 1202.79 326.573 1066.42 C 315.574 1057.7 301.382 1040 290.969 1033.49 C 286.66 1090.11 284.959 1158.83 322.627 1202.94 C 465.342 1370.07 848.693 1410.97 1068.51 1389.8 z M 1068.51 1609.89 C 1068.53 1557.91 1069.39 1505.76 1068.51 1453.79 C 1005.02 1457.24 942.542 1459.95 878.805 1457.15 C 707.016 1449.59 451.134 1403.33 316.404 1284.44 C 307.824 1276.86 300.337 1266.92 290.969 1260.42 L 290.885 1321.8 C 290.865 1334.1 289.99 1347.02 291.408 1359.24 C 300.359 1436.37 394.002 1493.18 456.867 1522.82 C 624.327 1601.76 837.179 1625 1022.04 1613.32 C 1037.44 1612.35 1053.12 1610.16 1068.51 1609.89 z M 1516.4 424.623 C 1502.09 439.499 1488.57 455.472 1473.81 469.845 C 1591.8 559.72 1668.31 666.297 1691.06 817.979 L 1709.8 812.834 C 1725.77 808.915 1741.79 804.496 1758.02 801.868 C 1751.48 786.406 1748.56 770.08 1744.3 753.924 C 1708.72 618.867 1629.35 506.607 1516.4 424.623 z M 1758.02 1169.58 C 1690.45 1210.65 1652.54 1161.76 1629.68 1169.58 C 1601.59 1172.76 1589.99 1206.8 1568.09 1221.99 C 1513.3 1260.01 1465.22 1215.95 1442.28 1223.24 C 1412.33 1232.76 1407.81 1282.82 1342.12 1287.71 C 1298.46 1290.96 1267.9 1250.2 1240.8 1284.16 C 1203.52 1330.87 1189.37 1341.58 1130.63 1341.2 L 1130.59 1419.3 C 1130.56 1432.14 1129.69 1445.33 1130.63 1458.11 C 1160.66 1452.85 1189.19 1439.88 1219.19 1434.83 C 1238.82 1427.87 1259.37 1422.96 1279.45 1417.46 L 1382.52 1389.22 C 1507.66 1354.34 1633.34 1320.75 1758.02 1284.32 C 1758.59 1246.1 1758 1207.81 1758.02 1169.58 z"/>
<path transform="translate(0,0)" fill="rgb(0,0,0)" d="M 543.525 791.145 C 599.049 784.597 585.067 857.27 535.767 874.645 C 487.851 885.83 482.655 817.88 543.525 791.145 z"/>
<path transform="translate(0,0)" fill="rgb(0,0,0)" d="M 846.284 693.029 C 867.108 692.223 890.149 711.791 878.964 733.77 C 872.875 745.735 848.583 771.082 836.326 775.392 C 780.007 782.995 795.517 708.016 846.284 693.029 z"/>
<path transform="translate(0,0)" fill="rgb(0,0,0)" d="M 685.611 943.363 C 741.533 949.79 713.657 1015.5 673.215 1025.19 C 615.252 1025.88 641.216 952.557 685.611 943.363 z"/>
<path transform="translate(0,0)" fill="rgb(0,0,0)" d="M 1401.79 680.384 C 1463.09 676.837 1432.58 757.087 1386.98 766.989 C 1321.71 767.896 1362.28 686.794 1401.79 680.384 z"/>
<path transform="translate(0,0)" fill="rgb(0,0,0)" d="M 1169.24 837.136 C 1193.77 835.777 1216.9 854.149 1204.59 880.104 C 1199.12 891.631 1173.63 918.448 1161.53 922.345 C 1111.81 934.974 1108.57 866.68 1169.24 837.136 z"/>
</svg>